<svg width="197" height="30" fill="none" xmlns="http://www.w3.org/2000/svg"><g clip-path="url(#clip0_2_1431)"><path d="M29.688.156v9.896h-9.896v19.792H9.896V10.052H0V.156h29.688zm29.688 0H39.584v9.896h19.792V.156z" fill="#0A9E01"/><path d="M59.376 19.948v9.896H29.688V10.052h9.896v9.896h19.792zM78.08 7.083H64.488v3.926h4.552v12.304h4.486V11.009h4.552V7.083zm5.112 3.794c-3.2 0-5.574 2.144-5.574 6.366 0 3.728 2.012 6.334 5.673 6.334 1.914 0 3.464-.495 4.949-1.386l-1.584-2.672c-1.22.627-2.078.858-3.167.858-1.121 0-1.913-.594-2.078-1.946h7.158c.033-.198.033-.462.033-.825.033-4.52-2.045-6.73-5.41-6.73zm-1.715 4.948c.132-1.22.66-1.848 1.617-1.848 1.22 0 1.649.627 1.847 1.848h-3.464zm15.075 4.354c-1.122 0-1.715-.99-1.715-2.936 0-1.913.527-3.002 1.616-3.002.89 0 1.287.495 1.88 1.584l2.87-2.177c-1.055-1.716-2.375-2.771-4.684-2.771-3.893 0-5.806 2.573-5.806 6.3 0 4.09 2.144 6.367 5.707 6.367 2.144 0 3.464-.825 4.882-2.903l-2.639-2.078c-.792 1.187-1.32 1.616-2.111 1.616zm14.383-9.302c-1.451 0-2.309.494-3.068 1.055V6.423l-4.189 1.683v15.24h4.189v-6.96c0-1.518.528-1.947 1.419-1.947.857 0 1.385.429 1.385 1.98v6.927h4.19V15.89c0-3.2-1.287-5.014-3.926-5.014z" fill="#0A9E01"/><path d="M124.92 19.651c-1.946 0-2.738-1.98-2.738-4.453 0-2.573.825-4.453 2.705-4.453 1.485 0 2.045.956 2.606 2.474l4.091-1.617c-1.122-3.068-2.705-4.783-6.697-4.783-4.354 0-7.422 3.167-7.422 8.379 0 4.816 2.573 8.378 7.389 8.378 3.86 0 5.674-2.078 6.762-4.189l-3.793-2.012c-.891 1.517-1.484 2.276-2.903 2.276zm13.426-7.62v-.89h-4.19v12.172h4.19v-6.63c0-1.485.627-1.98 1.649-1.98.825 0 1.419.429 1.946 1.023l.99-4.322c-.495-.296-1.089-.527-1.979-.527-1.089 0-1.913.461-2.606 1.154zm13.525 6.069c0 1.518-.528 1.947-1.386 1.947-.857 0-1.385-.429-1.385-1.98v-6.926h-4.19v7.455c0 3.2 1.287 4.98 3.959 4.98 1.418 0 2.309-.494 3.035-1.055v.825h4.189V11.174h-4.189l-.033 6.927zm14.482-7.223c-1.452 0-2.309.494-3.068 1.055v-.825h-4.189V23.28h4.189v-6.96c0-1.518.528-1.947 1.419-1.947.857 0 1.385.43 1.385 1.98v6.927h4.189v-7.455c0-3.134-1.253-4.948-3.925-4.948zm12.238 9.302c-1.122 0-1.716-.99-1.716-2.936 0-1.913.528-3.002 1.584-3.002.89 0 1.286.495 1.88 1.584l2.87-2.177c-1.056-1.716-2.375-2.771-4.684-2.771-3.893 0-5.806 2.573-5.806 6.3 0 4.09 2.144 6.367 5.707 6.367 2.144 0 3.463-.825 4.882-2.903l-2.639-2.078c-.726 1.187-1.287 1.616-2.078 1.616zm14.383-9.302c-1.451 0-2.309.494-3.068 1.055V6.423l-4.189 1.683v15.24h4.189v-6.96c0-1.518.528-1.947 1.419-1.947.857 0 1.385.429 1.385 1.98v6.927h4.19V15.89c.033-3.2-1.254-5.014-3.926-5.014z" fill="#000"/></g><defs><clipPath id="clip0_2_1431"><path fill="#fff" transform="translate(0 .156)" d="M0 0h196.9v29.688H0z"/></clipPath></defs></svg>