<svg width="144" height="48" fill="none" xmlns="http://www.w3.org/2000/svg"><path fill-rule="evenodd" clip-rule="evenodd" d="M19.877.109c-4.35.534-9.136 2.77-13.219 6.22-.826.68-2.551 2.357-2.551 2.455 0 .048.826.923 1.846 1.943L7.8 12.6l-.777.874c-2.868 3.232-4.812 6.513-5.978 9.988C.315 25.648 0 27.446 0 29.463c0 1.822.243 3.304.802 4.738l.219.583 5.418 5.42c4.52 4.519 5.54 5.49 6.1 5.855 1.166.778 2.527 1.313 4.033 1.628.997.22 3.305.292 4.399.146 4.325-.534 8.796-2.576 12.708-5.832 1.021-.85 2.746-2.478 2.746-2.575 0-.05-.85-.924-1.87-1.969l-1.872-1.895.583-.608c1.434-1.506 3.184-3.912 4.204-5.807 1.458-2.649 2.406-5.516 2.722-8.14.121-1.143.048-3.573-.146-4.496-.34-1.555-.875-2.819-1.677-4.034-.413-.632-1.24-1.482-5.807-6.075l-5.346-5.346-.56-.218c-.752-.316-2.308-.68-3.255-.778-.948-.097-2.43-.073-3.524.049zm4.593 1.433c.389.097 1.02.243 1.36.365.632.218.657.218 1.653 1.215.875.875.996.996.777.972-1.166-.219-3.037-.268-4.495-.073-4.665.583-9.477 2.94-13.9 6.828-.437.389-.826.729-.898.778-.073.048-.462-.268-1.604-1.41L5.856 8.711l.972-.85c4.058-3.549 8.53-5.784 12.903-6.416 1.167-.17 3.767-.097 4.739.097zm6.366 7.728c2.139.315 4.01 1.239 5.395 2.624 1.36 1.36 2.235 3.11 2.648 5.297.17.972.17 3.16 0 4.301-.558 3.524-2.186 7.144-4.714 10.45-.583.777-1.968 2.405-2.187 2.575-.121.097-.267-.024-1.53-1.288-.778-.777-1.41-1.434-1.41-1.458 0-.024.219-.291.486-.583 4.398-4.86 6.464-10.935 5.006-14.701-.583-1.458-1.798-2.552-3.378-3.038-.802-.243-2.211-.364-3.256-.243-1.604.146-3.572.778-5.467 1.701-1.896.924-3.621 2.09-5.298 3.596l-.753.657-1.434-1.434-1.433-1.434.607-.559c3.718-3.475 8.65-5.953 12.879-6.512.85-.073 3.037-.073 3.84.049zm-20.095 8.383a46.928 46.928 0 00-1.556 1.895c-4.033 5.37-5.88 11.203-5.127 16.233l.049.315-.997-.972c-.947-.923-.996-.996-1.19-1.579-1.896-5.443.486-12.952 6.099-19.245l.656-.73 1.507 1.507 1.506 1.507-.947 1.069zm18.977-3.11l.195.048-.049 1.02c-.048 1.216-.218 2.212-.461 3.063-.778 2.551-2.212 5.102-4.301 7.508l-.802.924-1.531-1.531-1.531-1.531.705-.778c1.506-1.652 2.891-3.572 3.742-5.2.462-.875 1.069-2.357 1.24-3.037.096-.413.096-.413.46-.462.195-.024.414-.049.487-.073.194 0 1.676 0 1.846.049zm-4.35 1.069c-.34.947-1.093 2.405-1.822 3.499-.802 1.215-1.36 1.944-2.478 3.207l-.778.9-1.53-1.531-1.532-1.531.51-.462c1.58-1.41 3.427-2.673 5.128-3.548.923-.461 2.43-1.069 2.649-1.093.024 0-.025.243-.146.559zm23.28.923c-.073.073-.097 2.09-.097 9.477 0 8.99 0 9.38.146 9.501.121.122.51.122 3.79.122 1.993 0 4.156-.049 4.787-.073 2.552-.17 4.52-.996 6.027-2.503 1.19-1.19 1.944-2.843 2.332-5.03.17-1.07.17-3.305 0-4.35-.631-3.523-2.648-5.807-5.88-6.73-1.58-.438-1.701-.462-6.512-.487-3.572 0-4.52 0-4.593.073zm88.475.316c-.073.073-.097.68-.097 2.236v2.138h-.923c-.608 0-.948.024-1.021.097-.121.122-.121 2.649 0 2.795.073.073.413.097 1.021.097h.923l.024 4.325c.025 4.228.025 4.35.195 4.836.461 1.336 1.409 2.065 2.94 2.26 1.045.121 2.527.073 3.548-.122l.218-.048-.024-1.774-.024-1.774-.972-.049c-1.045-.048-1.215-.097-1.337-.316-.048-.097-.073-1.555-.073-3.718v-3.572l1.24-.024 1.239-.024v-2.965l-1.239-.024-1.24-.024v-2.09c0-1.288-.024-2.138-.072-2.236-.073-.145-.195-.145-2.139-.145-1.531.048-2.114.072-2.187.121zM57.59 20.958c1.483.389 2.455 1.433 2.843 2.964.292 1.167.292 3.11-.024 4.326-.316 1.19-1.045 2.138-2.017 2.6-.85.413-1.36.486-3.11.534l-1.58.049V20.739l1.701.049c1.24.024 1.847.072 2.187.17zm14.847.097c-2.43.437-4.3 2.041-5.127 4.374-1.093 3.062-.559 6.56 1.288 8.53.972 1.02 1.895 1.554 3.305 1.919 2.697.68 5.589-.025 7.508-1.823.462-.413 1.653-1.92 1.653-2.065 0-.17-.34-.389-1.725-1.094-.851-.437-1.556-.802-1.58-.802-.024 0-.17.22-.316.486-.34.657-1.045 1.386-1.555 1.653-1.53.753-3.33.316-4.107-.996-.218-.39-.437-1.07-.437-1.434v-.268h4.86c3.67 0 4.86-.024 4.933-.097.121-.121.121-1.093-.025-2.065-.388-2.6-1.482-4.471-3.231-5.516-.584-.34-1.701-.73-2.43-.85-.73-.122-2.285-.098-3.014.048zm15.965-.097c-.68.097-1.239.218-1.676.364-2.455.778-4.083 2.795-4.593 5.662-.194 1.093-.121 2.843.146 3.888.364 1.41.899 2.333 1.87 3.256.851.802 1.848 1.36 3.184 1.725.389.122.778.146 1.774.146 1.142 0 1.312-.024 1.944-.218 1.264-.39 2.236-.972 3.11-1.896.584-.607 1.24-1.506 1.24-1.7 0-.074-.122-.195-.243-.292-.51-.316-2.868-1.483-2.99-1.483-.072 0-.194.17-.315.413-.292.632-.68 1.045-1.288 1.337-.462.219-.608.267-1.118.243-.68 0-1.118-.17-1.677-.656-1.457-1.288-1.555-4.86-.17-6.488.875-1.02 2.503-1.02 3.548-.024.17.17.413.486.535.704.121.219.267.413.34.413.17.049 3.159-1.676 3.208-1.846.024-.146-.292-.632-.754-1.215-.753-.924-2.235-1.823-3.523-2.115-.656-.17-2.066-.267-2.552-.218zm38.977.17c-.802.146-1.531.437-2.114.875l-.462.34-.024-.486-.024-.486-1.871-.024c-1.653-.025-1.896 0-2.017.121-.146.122-.146.486-.146 9.477 0 7.168.024 9.355.097 9.428.146.146 4.228.146 4.35 0 .073-.073.097-.802.097-2.77V34.93l.753.389c1.021.51 1.653.632 2.843.583 1.385-.073 2.212-.34 3.111-1.02 1.263-.948 2.089-2.406 2.551-4.423.243-1.07.243-2.94 0-4.082-.316-1.507-.826-2.528-1.749-3.5-1.361-1.506-3.354-2.114-5.395-1.75zM17.787 22.56c1.313 1.313 1.386 1.41 1.288 1.556-.073.073-.389.437-.729.826-1.36 1.555-2.624 3.45-3.475 5.2-.607 1.24-.972 2.26-1.336 3.645-.462 1.822-.462 3.84.049 5.249.947 2.673 3.45 3.936 6.95 3.523 3.377-.413 7.265-2.357 10.594-5.297l.705-.632 1.433 1.434 1.434 1.433-.608.56c-3.11 2.89-7.265 5.248-10.861 6.123-1.459.364-2.48.486-3.864.486-1.847 0-3.208-.243-4.641-.875-1.847-.802-3.548-2.381-4.423-4.13-1.093-2.164-1.41-4.837-.923-7.728.68-4.034 2.94-8.36 6.269-12.077.34-.389.656-.705.68-.705.025 0 .68.632 1.458 1.41zm86.459-1.312c-.948.146-2.139.584-2.916 1.094l-.243.17v-.51c0-.292-.049-.535-.097-.608-.073-.073-.632-.097-2.066-.097-1.798 0-1.993 0-2.09.146-.121.121-.121.729-.121 7.047 0 6.585 0 6.9.146 7.022.121.122.388.122 2.138.122 1.555 0 2.017-.025 2.09-.097.048-.073.097-1.507.097-4.447.024-4.083.024-4.374.17-4.642.292-.583.802-.826 2.284-1.069.559-.097 1.118-.194 1.239-.218l.219-.049v-1.895c0-1.896-.024-2.114-.267-2.066-.097.024-.34.049-.583.097zm1.992.17c-.048.073-.073.195-.048.316.024.098.68 2.236 1.458 4.714 3.11 10.012 2.94 9.429 2.721 9.817-.194.39-.534.462-1.749.462-.754 0-1.142.024-1.191.097-.073.073-.097.56-.097 1.75s.024 1.677.097 1.75c.121.121 3.208.121 4.009.024 1.337-.194 2.43-1.142 3.062-2.649.146-.316 1.385-4.082 2.77-8.359 2.114-6.464 2.528-7.8 2.43-7.897-.073-.098-.437-.122-2.357-.122h-2.26l-.073.34c-.048.195-.51 2.212-1.044 4.52-.535 2.309-.972 4.228-1.021 4.253-.024.024-.535-2.017-1.093-4.52l-1.045-4.593h-2.26c-1.871 0-2.236 0-2.309.097zm-31.03 3.038c.729.34 1.215.996 1.36 1.798l.049.292h-5.2l.048-.243c.098-.438.51-1.142.85-1.434.584-.51 1.094-.68 1.896-.632.39.024.68.097.997.219zm53.629.121c.68.365 1.191 1.118 1.434 2.139.17.753.17 2.551-.025 3.305a5.178 5.178 0 01-.874 1.798c-.584.704-1.726.899-2.649.437-1.069-.534-1.58-1.725-1.58-3.718 0-1.847.486-3.159 1.386-3.815a2.199 2.199 0 012.308-.146zM22.55 28.515c-1.992 1.871-4.544 3.548-6.658 4.398-.437.17-.826.316-.85.316-.025 0 .072-.267.194-.607.923-2.552 2.527-5.152 4.447-7.217l.461-.486 1.531 1.506 1.531 1.507-.656.583zm3.062 1.895l1.482 1.483-.462.437c-2.43 2.284-6.172 4.35-8.82 4.909-.656.145-2.114.291-2.82.291h-.46v-1.118c0-.607.024-1.263.048-1.41l.048-.29.948-.317c2.406-.777 5.468-2.697 7.727-4.835.365-.34.705-.632.754-.632.048 0 .753.656 1.555 1.482z" fill="#1D1D1B"/></svg>