<svg width="194" height="33" fill="none" xmlns="http://www.w3.org/2000/svg"><path d="M71.535 9.424c4.374 0 7.323 1.745 7.323 5.16v.811h-3.932v-.81c0-1.377-1.278-2.065-3.391-2.065h-.443c-2.162 0-3.39.639-3.39 1.573v.245c0 1.13.982 1.45 4.963 2.114 4.497.81 6.488 2.138 6.488 4.915v.245c0 2.777-2.507 4.768-7.544 4.768h-.467c-5.087 0-7.667-2.015-7.667-5.431v-.762h3.931v.762c0 1.745 1.352 2.31 3.76 2.31h.443c2.285 0 3.563-.54 3.563-1.598v-.22c0-1.057-1.18-1.524-5.136-2.163-4.153-.664-6.316-1.917-6.316-4.743v-.32c0-3.046 2.802-4.791 7.372-4.791h.443zm19.636 16.71v-1.647h-.516c-.762 1.155-2.162 1.892-4.128 1.892h-.418c-3.047 0-4.767-1.646-4.767-5.234v-7.618h3.932v6.906c0 1.744.909 2.703 2.727 2.703h.418c1.818 0 2.752-.959 2.752-2.703v-6.906h3.932v12.607h-3.932zm10.714-12.607v1.548h.516c.909-1.13 2.261-1.794 4.153-1.794h.442c3.195 0 5.529 1.794 5.529 5.824v1.45c0 4.03-2.334 5.824-5.529 5.824h-.442c-1.941 0-3.268-.686-4.153-1.843h-.516v7.495h-3.932V13.527h3.932zm0 5.529v1.524c0 1.843 1.253 2.727 3.121 2.727h.442c1.892 0 3.145-.909 3.145-2.727v-1.524c0-1.794-1.253-2.703-3.145-2.703h-.442c-1.868 0-3.121.885-3.121 2.703zm20.174-5.774c4.005 0 6.88 1.941 6.88 5.873v1.597h-10.566v.148c0 1.818 1.155 2.727 3.219 2.727h.467c1.72 0 2.801-.491 3.145-1.695h3.613c-.344 2.604-2.507 4.448-6.758 4.448h-.467c-4.006 0-6.93-1.868-6.93-5.8v-1.425c0-3.932 2.9-5.873 6.93-5.873h.467zm-3.662 4.988h6.807c-.147-1.45-1.351-2.236-3.17-2.236h-.467c-1.941 0-3.022.786-3.17 2.236zm17.031-4.743v1.45h.491c.738-1.106 1.868-1.696 3.588-1.696 2.703 0 4.128 1.352 4.128 4.89v.836h-3.636v-.516c0-1.302-.738-1.99-2.286-1.99s-2.285.688-2.285 1.99v7.642h-3.932V13.527h3.932zm24.423-5.577v18.184h-3.931v-1.598h-.541c-.885 1.158-2.187 1.843-4.128 1.843h-.467c-3.195 0-5.505-1.769-5.505-5.824v-1.45c0-4.03 2.31-5.823 5.505-5.823h.467c1.892 0 3.219.663 4.128 1.794h.541V7.949h3.931zm-10.64 11.107v1.523c0 1.794 1.253 2.728 3.121 2.728h.442c1.892 0 3.146-.91 3.146-2.728v-1.523c0-1.794-1.254-2.704-3.146-2.704h-.442c-1.868 0-3.121.934-3.121 2.703zm20.323-5.776c4.448 0 6.463 1.696 6.463 4.57v8.282h-3.932v-1.597h-.59c-.983 1.28-2.384 1.843-4.521 1.843-2.654 0-4.571-1.177-4.571-3.809 0-2.556 1.695-4.055 5.627-4.055h4.055v-.663c0-1.253-.86-1.843-2.556-1.843h-.442c-1.622 0-2.556.565-2.556 1.794h-3.858c0-2.85 2.187-4.522 6.414-4.522h.467zm-3.269 8.896c0 .835.688 1.351 2.335 1.351 1.646 0 3.465-.59 3.465-2.383v-.369h-3.514c-1.647 0-2.286.467-2.286 1.4zm19.684-8.896c4.104 0 7.053 1.966 7.053 5.824v1.45c0 3.907-2.949 5.824-7.053 5.824h-.467c-4.128 0-7.052-1.941-7.052-5.824v-1.45c0-3.858 2.924-5.824 7.052-5.824h.467zm-3.588 5.775v1.524c0 1.67.959 2.727 3.121 2.727h.467c2.163 0 3.121-1.056 3.121-2.727v-1.524c0-1.671-.958-2.703-3.121-2.703h-.467c-2.162 0-3.121 1.032-3.121 2.703z" fill="#fff"/><path d="M37.968 7.228l2.96 12.355a2.154 2.154 0 01-2.095 2.655h-26.69a6.058 6.058 0 01-5.689-3.975l-.242-.662a.539.539 0 01.505-.724h17.431a.374.374 0 00.374-.373 2.803 2.803 0 00-2.803-2.804H9.017a6.058 6.058 0 01-5.688-3.975L3.11 9.13a.538.538 0 01.506-.723h16.561a.374.374 0 00.374-.374 2.803 2.803 0 00-2.803-2.803H5.915A6.058 6.058 0 01.227 1.253L.033.723A.538.538 0 01.54 0h28.265a9.423 9.423 0 019.164 7.228z" fill="url(#paint0_linear_2_1904)"/><path d="M48.446 10.906l4.15 17.824a2.154 2.154 0 01-2.097 2.642H22.66a6.058 6.058 0 01-5.772-4.217l-.282-.885a.808.808 0 01.77-1.053h25.42a2.154 2.154 0 002.093-2.66L41.177 7.218a.808.808 0 01.785-.997h.584a6.058 6.058 0 015.9 4.684z" fill="url(#paint1_linear_2_1904)"/><defs><linearGradient id="paint0_linear_2_1904" x1="20.485" y1="0" x2="20.485" y2="22.238" gradientUnits="userSpaceOnUse"><stop stop-color="#FFC803"/><stop offset="1" stop-color="#FFA903"/></linearGradient><linearGradient id="paint1_linear_2_1904" x1="34.56" y1="6.222" x2="34.56" y2="31.372" gradientUnits="userSpaceOnUse"><stop stop-color="#FF7421"/><stop offset="1" stop-color="#EC5901"/></linearGradient></defs></svg>